<svg width="1276" height="763" viewBox="0 0 1276 763" fill="none" xmlns="http://www.w3.org/2000/svg">
<path d="M699.35 419.5V430.75C694.75 427.95 688.45 426.55 680.45 426.55C676.45 426.55 673.25 427.5 670.85 429.4C668.55 431.2 667.4 433.55 667.4 436.45C667.4 438.25 667.75 439.85 668.45 441.25C669.15 442.55 670.5 443.85 672.5 445.15C674.6 446.45 676.1 447.35 677 447.85C678 448.25 680.1 449.15 683.3 450.55C689.7 453.15 694.7 456.1 698.3 459.4C701.9 462.7 703.7 467.15 703.7 472.75C703.7 479.25 701.4 484.4 696.8 488.2C692.3 492 686.1 493.9 678.2 493.9C669 493.9 661.55 492.35 655.85 489.25V477.7C662.55 481.7 669.75 483.7 677.45 483.7C682.05 483.7 685.55 482.8 687.95 481C690.35 479.2 691.55 476.75 691.55 473.65C691.55 470.05 690.2 467.25 687.5 465.25C684.9 463.25 680.5 461 674.3 458.5C668.6 456.3 664 453.55 660.5 450.25C657.1 446.95 655.4 442.5 655.4 436.9C655.4 430.6 657.75 425.6 662.45 421.9C667.25 418.1 673.2 416.2 680.3 416.2C688.2 416.2 694.55 417.3 699.35 419.5ZM751.116 493V416.95H762.966V493H751.116ZM751.416 398.65C750.016 397.15 749.316 395.3 749.316 393.1C749.316 390.9 750.016 389.05 751.416 387.55C752.916 386.05 754.766 385.3 756.966 385.3C759.166 385.3 761.016 386.05 762.516 387.55C764.016 389.05 764.766 390.9 764.766 393.1C764.766 395.3 764.016 397.15 762.516 398.65C761.016 400.05 759.166 400.75 756.966 400.75C754.766 400.75 752.916 400.05 751.416 398.65ZM827.976 416.95V429.25C832.176 420.35 839.326 415.9 849.426 415.9C861.126 415.9 868.526 420.85 871.626 430.75C873.826 425.95 876.876 422.3 880.776 419.8C884.776 417.2 889.226 415.9 894.126 415.9C902.026 415.9 907.976 418.15 911.976 422.65C915.976 427.15 917.976 433.2 917.976 440.8V493H906.126V443.8C906.126 432.3 901.276 426.55 891.576 426.55C886.776 426.55 882.476 428.75 878.676 433.15C874.876 437.45 872.976 443.55 872.976 451.45V493H861.126V443.8C861.126 432.3 856.276 426.55 846.576 426.55C841.776 426.55 837.476 428.75 833.676 433.15C829.876 437.45 827.976 443.55 827.976 451.45V493H816.276V416.95H827.976ZM1003.23 483.4C1009.63 483.4 1014.88 480.9 1018.98 475.9C1023.08 470.8 1025.13 463.6 1025.13 454.3C1025.13 446 1023.13 439.3 1019.13 434.2C1015.13 429.1 1010.08 426.55 1003.98 426.55C997.88 426.55 992.58 428.8 988.08 433.3C983.68 437.7 981.48 444.95 981.48 455.05C981.48 464.75 983.73 471.9 988.23 476.5C992.73 481.1 997.73 483.4 1003.23 483.4ZM981.48 416.95V428.5C986.78 420 994.63 415.75 1005.03 415.75C1015.13 415.75 1023.03 419.45 1028.73 426.85C1034.53 434.15 1037.43 443.3 1037.43 454.3C1037.43 466 1034.38 475.6 1028.28 483.1C1022.28 490.5 1014.43 494.2 1004.73 494.2C994.73 494.2 986.98 489.95 981.48 481.45V522.55H969.78V416.95H981.48ZM1086.24 493V386.95H1098.09V493H1086.24ZM1172.4 491.05L1141.65 416.95H1155L1164.9 442L1178.25 476.5C1179.05 473.9 1183.05 462.4 1190.25 442L1199.1 416.95H1211.85L1184.4 491.05C1180.5 501.35 1175.85 508.6 1170.45 512.8C1165.15 517 1159.05 519.1 1152.15 519.1C1149.55 519.1 1147.45 518.85 1145.85 518.35V507.7C1147.35 508.1 1149.05 508.3 1150.95 508.3C1161.05 508.3 1168.2 502.55 1172.4 491.05Z" fill="#313131"/>
<path d="M714.2 722.4C690.4 722.4 672 715.3 659 701.1C646 686.7 639.5 668.3 639.5 645.9C639.5 622.5 646.3 603.3 659.9 588.3C673.5 573.1 691.6 565.5 714.2 565.5C737.8 565.5 756.1 572.8 769.1 587.4C782.1 602 788.6 620.6 788.6 643.2C788.6 666.2 782 685.2 768.8 700.2C755.8 715 737.6 722.4 714.2 722.4ZM713.9 600C704.3 600 697.1 604.1 692.3 612.3C687.5 620.5 685.1 631.1 685.1 644.1C685.1 657.1 687.5 667.8 692.3 676.2C697.3 684.4 704.7 688.5 714.5 688.5C724.1 688.5 731.2 684.5 735.8 676.5C740.6 668.3 743 657.7 743 644.7C743 614.9 733.3 600 713.9 600ZM861.015 567.9V591.6C869.415 574.8 883.715 566.4 903.915 566.4C925.315 566.4 939.515 576 946.515 595.2C949.915 586.2 955.615 579.2 963.615 574.2C971.615 569 981.015 566.4 991.815 566.4C1006.81 566.4 1018.61 571.2 1027.21 580.8C1036.01 590.2 1040.41 604.1 1040.41 622.5V720H996.615V629.7C996.615 621.1 994.915 614.3 991.515 609.3C988.115 604.3 983.215 601.8 976.815 601.8C970.015 601.8 963.915 604.6 958.515 610.2C953.315 615.6 950.715 625.4 950.715 639.6V720H906.915V629.7C906.915 621.1 905.215 614.3 901.815 609.3C898.415 604.3 893.515 601.8 887.115 601.8C880.315 601.8 874.215 604.6 868.815 610.2C863.615 615.6 861.015 625.4 861.015 639.6V720H817.215V567.9H861.015ZM1162.93 630V626.4C1161.53 608.6 1153.73 599.7 1139.53 599.7C1132.53 599.7 1126.33 602.3 1120.93 607.5C1115.53 612.5 1111.93 620 1110.13 630H1162.93ZM1194.43 674.7V711.3C1184.03 718.1 1168.13 721.5 1146.73 721.5C1121.73 721.5 1102.23 714.3 1088.23 699.9C1074.43 685.3 1067.53 666.6 1067.53 643.8C1067.53 619.6 1074.23 600.7 1087.63 587.1C1101.23 573.3 1117.93 566.4 1137.73 566.4C1158.13 566.4 1174.23 572.4 1186.03 584.4C1197.83 596.2 1203.73 613.9 1203.73 637.5C1203.73 642.1 1202.93 650 1201.33 661.2H1111.93C1114.93 669.6 1120.13 676.1 1127.53 680.7C1134.93 685.3 1143.83 687.6 1154.23 687.6C1169.63 687.6 1183.03 683.3 1194.43 674.7Z" fill="#3392D7"/>
<path d="M691.68 279.834L534.336 146.39C534.336 145.394 534.336 144.398 534.336 143.402V29.8755C534.336 12.9461 521.39 0 504.461 0C487.531 0 474.585 12.9461 474.585 29.8755V96.5975L371.017 7.96681C360.062 -1.9917 343.133 -1.9917 332.178 7.96681L10.5187 281.826C-2.42738 292.78 -3.42324 311.701 7.53112 323.651C13.5062 330.622 21.473 334.606 30.4357 334.606C37.4066 334.606 44.3776 332.614 49.3568 327.635L352.095 70.7054L652.842 325.643C665.788 336.597 684.709 334.606 694.668 322.656C705.622 309.71 703.631 290.788 691.68 279.834Z" fill="#313131"/>
<path d="M122.054 312.697C115.083 318.672 111.1 326.639 111.1 335.602V690.124C111.1 707.054 124.046 720 140.975 720H286.369V549H415.83V720H561.224C578.153 720 591.1 707.054 591.1 690.124V335.602C591.1 326.639 587.116 318.672 580.145 312.697L415.83 176.284V396H286.369V176.284L122.054 312.697Z" fill="#3392D7"/>
</svg>
