<svg width="702" height="763" viewBox="0 0 702 763" fill="none" xmlns="http://www.w3.org/2000/svg">
<path d="M691.68 279.834L534.336 146.39C534.336 145.394 534.336 144.398 534.336 143.402V29.8755C534.336 12.9461 521.39 0 504.461 0C487.531 0 474.585 12.9461 474.585 29.8755V96.5975L371.017 7.96681C360.062 -1.9917 343.133 -1.9917 332.178 7.96681L10.5187 281.826C-2.42738 292.78 -3.42324 311.701 7.53112 323.651C13.5062 330.622 21.473 334.606 30.4357 334.606C37.4066 334.606 44.3776 332.614 49.3568 327.635L352.095 70.7054L652.842 325.643C665.788 336.597 684.709 334.606 694.668 322.656C705.622 309.71 703.631 290.788 691.68 279.834Z" fill="#313131"/>
<path d="M122.054 312.697C115.083 318.672 111.1 326.639 111.1 335.602V690.124C111.1 707.054 124.046 720 140.975 720H286.369V549H415.83V720H561.224C578.153 720 591.1 707.054 591.1 690.124V335.602C591.1 326.639 587.116 318.672 580.145 312.697L415.83 176.284V396H286.369V176.284L122.054 312.697Z" fill="#3392D7"/>
</svg>
